<mxfile host="app.diagrams.net" agent="Mozilla/5.0 (Windows NT 10.0; Win64; x64) AppleWebKit/537.36 (KHTML, like Gecko) Chrome/138.0.0.0 Safari/537.36 Edg/138.0.0.0" version="28.0.7">
  <diagram id="pumMRhrU6rIKO2GXzZi6" name="ERRORES IMAGENES">
    <mxGraphModel dx="2193" dy="717" grid="1" gridSize="10" guides="1" tooltips="1" connect="1" arrows="1" fold="1" page="1" pageScale="1" pageWidth="827" pageHeight="1169" math="0" shadow="0">
      <root>
        <mxCell id="0" />
        <mxCell id="1" parent="0" />
        <mxCell id="DmlKeSAURHe2a4eYINKB-1" value="Error&amp;nbsp;can only specify one unknown dimension" style="rounded=0;whiteSpace=wrap;html=1;fillColor=#60a917;fontColor=#ffffff;strokeColor=#2D7600;" vertex="1" parent="1">
          <mxGeometry x="195" y="270" width="250" height="80" as="geometry" />
        </mxCell>
        <mxCell id="DmlKeSAURHe2a4eYINKB-36" style="edgeStyle=orthogonalEdgeStyle;rounded=0;orthogonalLoop=1;jettySize=auto;html=1;" edge="1" parent="1">
          <mxGeometry relative="1" as="geometry">
            <mxPoint x="816" y="460" as="sourcePoint" />
            <mxPoint x="816" y="535" as="targetPoint" />
          </mxGeometry>
        </mxCell>
        <mxCell id="DmlKeSAURHe2a4eYINKB-2" value="1 DIMENSION" style="rounded=1;whiteSpace=wrap;html=1;fillColor=#1ba1e2;fontColor=#ffffff;strokeColor=#006EAF;" vertex="1" parent="1">
          <mxGeometry x="750" y="410" width="120" height="60" as="geometry" />
        </mxCell>
        <mxCell id="DmlKeSAURHe2a4eYINKB-3" value="2 DIMENSION" style="rounded=0;whiteSpace=wrap;html=1;fillColor=#1ba1e2;fontColor=#ffffff;strokeColor=#006EAF;" vertex="1" parent="1">
          <mxGeometry x="916" y="400" width="120" height="60" as="geometry" />
        </mxCell>
        <mxCell id="DmlKeSAURHe2a4eYINKB-4" value="3 DIMENSION" style="rounded=0;whiteSpace=wrap;html=1;fillColor=#1ba1e2;fontColor=#ffffff;strokeColor=#006EAF;" vertex="1" parent="1">
          <mxGeometry x="1156" y="400" width="120" height="60" as="geometry" />
        </mxCell>
        <mxCell id="DmlKeSAURHe2a4eYINKB-9" value="ALTO" style="rounded=0;whiteSpace=wrap;html=1;" vertex="1" parent="1">
          <mxGeometry x="740" y="550" width="120" height="60" as="geometry" />
        </mxCell>
        <mxCell id="DmlKeSAURHe2a4eYINKB-10" value="ANCHO" style="rounded=0;whiteSpace=wrap;html=1;" vertex="1" parent="1">
          <mxGeometry x="956" y="535" width="120" height="60" as="geometry" />
        </mxCell>
        <mxCell id="DmlKeSAURHe2a4eYINKB-11" value="CANALES" style="rounded=0;whiteSpace=wrap;html=1;" vertex="1" parent="1">
          <mxGeometry x="1156" y="535" width="120" height="60" as="geometry" />
        </mxCell>
        <mxCell id="DmlKeSAURHe2a4eYINKB-23" style="edgeStyle=orthogonalEdgeStyle;rounded=0;orthogonalLoop=1;jettySize=auto;html=1;" edge="1" parent="1" source="DmlKeSAURHe2a4eYINKB-17">
          <mxGeometry relative="1" as="geometry">
            <mxPoint x="320" y="535" as="targetPoint" />
          </mxGeometry>
        </mxCell>
        <mxCell id="DmlKeSAURHe2a4eYINKB-17" value="Solo puedes dejar una dimension undefined" style="rounded=1;whiteSpace=wrap;html=1;" vertex="1" parent="1">
          <mxGeometry x="260" y="450" width="120" height="60" as="geometry" />
        </mxCell>
        <mxCell id="DmlKeSAURHe2a4eYINKB-20" value="" style="edgeStyle=orthogonalEdgeStyle;rounded=0;orthogonalLoop=1;jettySize=auto;html=1;" edge="1" parent="1" source="DmlKeSAURHe2a4eYINKB-18" target="DmlKeSAURHe2a4eYINKB-17">
          <mxGeometry relative="1" as="geometry" />
        </mxCell>
        <mxCell id="DmlKeSAURHe2a4eYINKB-18" value="Significa" style="text;html=1;align=center;verticalAlign=middle;whiteSpace=wrap;rounded=0;" vertex="1" parent="1">
          <mxGeometry x="290" y="390" width="60" height="30" as="geometry" />
        </mxCell>
        <mxCell id="DmlKeSAURHe2a4eYINKB-21" value="" style="endArrow=none;html=1;rounded=0;" edge="1" parent="1">
          <mxGeometry width="50" height="50" relative="1" as="geometry">
            <mxPoint x="319.5" y="400" as="sourcePoint" />
            <mxPoint x="319.5" y="350" as="targetPoint" />
            <Array as="points">
              <mxPoint x="319.5" y="400" />
            </Array>
          </mxGeometry>
        </mxCell>
        <mxCell id="DmlKeSAURHe2a4eYINKB-33" style="edgeStyle=orthogonalEdgeStyle;rounded=0;orthogonalLoop=1;jettySize=auto;html=1;entryX=0.25;entryY=0;entryDx=0;entryDy=0;" edge="1" parent="1" source="DmlKeSAURHe2a4eYINKB-29" target="DmlKeSAURHe2a4eYINKB-4">
          <mxGeometry relative="1" as="geometry" />
        </mxCell>
        <mxCell id="DmlKeSAURHe2a4eYINKB-29" value="DIMENSIONES" style="rounded=0;whiteSpace=wrap;html=1;fillColor=#60a917;fontColor=#ffffff;strokeColor=#2D7600;" vertex="1" parent="1">
          <mxGeometry x="846" y="250" width="130" height="70" as="geometry" />
        </mxCell>
        <mxCell id="DmlKeSAURHe2a4eYINKB-31" style="edgeStyle=orthogonalEdgeStyle;rounded=0;orthogonalLoop=1;jettySize=auto;html=1;entryX=0.45;entryY=0.083;entryDx=0;entryDy=0;entryPerimeter=0;" edge="1" parent="1" source="DmlKeSAURHe2a4eYINKB-29">
          <mxGeometry relative="1" as="geometry">
            <mxPoint x="810" y="404.98" as="targetPoint" />
          </mxGeometry>
        </mxCell>
        <mxCell id="DmlKeSAURHe2a4eYINKB-35" value="" style="endArrow=classic;html=1;rounded=0;exitX=0.854;exitY=1.043;exitDx=0;exitDy=0;exitPerimeter=0;entryX=0.358;entryY=0.05;entryDx=0;entryDy=0;entryPerimeter=0;" edge="1" parent="1" source="DmlKeSAURHe2a4eYINKB-29" target="DmlKeSAURHe2a4eYINKB-3">
          <mxGeometry width="50" height="50" relative="1" as="geometry">
            <mxPoint x="1026" y="380" as="sourcePoint" />
            <mxPoint x="1076" y="330" as="targetPoint" />
          </mxGeometry>
        </mxCell>
        <mxCell id="DmlKeSAURHe2a4eYINKB-37" style="edgeStyle=orthogonalEdgeStyle;rounded=0;orthogonalLoop=1;jettySize=auto;html=1;entryX=0.625;entryY=0.067;entryDx=0;entryDy=0;entryPerimeter=0;" edge="1" parent="1" source="DmlKeSAURHe2a4eYINKB-3" target="DmlKeSAURHe2a4eYINKB-10">
          <mxGeometry relative="1" as="geometry" />
        </mxCell>
        <mxCell id="DmlKeSAURHe2a4eYINKB-38" style="edgeStyle=orthogonalEdgeStyle;rounded=0;orthogonalLoop=1;jettySize=auto;html=1;entryX=0.575;entryY=0.017;entryDx=0;entryDy=0;entryPerimeter=0;" edge="1" parent="1" source="DmlKeSAURHe2a4eYINKB-4" target="DmlKeSAURHe2a4eYINKB-11">
          <mxGeometry relative="1" as="geometry" />
        </mxCell>
        <mxCell id="DmlKeSAURHe2a4eYINKB-41" style="edgeStyle=orthogonalEdgeStyle;rounded=0;orthogonalLoop=1;jettySize=auto;html=1;" edge="1" parent="1" source="DmlKeSAURHe2a4eYINKB-39">
          <mxGeometry relative="1" as="geometry">
            <mxPoint x="330" y="595" as="targetPoint" />
          </mxGeometry>
        </mxCell>
        <mxCell id="DmlKeSAURHe2a4eYINKB-39" value="Surge de" style="text;html=1;align=center;verticalAlign=middle;whiteSpace=wrap;rounded=0;" vertex="1" parent="1">
          <mxGeometry x="290" y="535" width="60" height="30" as="geometry" />
        </mxCell>
        <mxCell id="DmlKeSAURHe2a4eYINKB-42" value="" style="shape=image;verticalLabelPosition=bottom;labelBackgroundColor=default;verticalAlign=top;aspect=fixed;imageAspect=0;image=data:image/png,iVBORw0KGgoAAAANSUhEUgAAAzcAAABFCAYAAAB30xiNAAAAAXNSR0IArs4c6QAAAARnQU1BAACxjwv8YQUAAAAJcEhZcwAADsMAAA7DAcdvqGQAAC7eSURBVHhe7Z19dFXVmfB/8652ho9wkwhGDXGSmDDIV/kKtMEXAa+ZJitVB1NghNGUWkCj1rd20DQCiyWYCdraaaVRsB0GHXCAxry2k5X0DSkiS1Ih8lEUpCSSVIiY8pF7CcSOrjXvH+ece8/Z59x7z73cfPb5rXXWuvfsffbeZ+99ztnP3s/z7L9KT0//HwRBEARBEARBEAY4/0s9IQiCIAiCIAiCMBAR4UYQBEEQBEEQhEGBCDeCIAiCIAiCIAwKRLgRBEEQBEEQBGFQIMKNIAiCIAiCIAiDAhFuBEEQBEEQBEEYFIhwIwiCIAiCIAjCoECEG0EQBEEQBEEQBgUi3AiCIAiCIAiCMCgQ4UYQBEEQBEEQhEGBCDeCIAiCIAiCIAwKRLgRBEEQBEEQBGFQIMKNIAiCIAiCIAiDAhFuBEEQBEEQBEEYFIhwIwiCIAiCIAjCoECEG0EQBEEQBEEQBgUi3AiCIAiCIAiCMCj4q/T09P9RT/6lkLb+KEtzO6j15tGkBgrOlNSzuig7+L9lB+uWl5pj9A4l9awuSqGpYjK19WqgMJBYtradp8cl8OwiD6+ogfEkbxuPlc4iieb+88x7/fx+ZRfvP5/K4gY1UOgvpC6ZydT04P+OugMcPGSO8RfItCwK80eC7wx7f9ZOlxoeK6NTmVecRldc6ngoYx+ZRHbnKWq2XVIDoyZ1yUymJsX5fgcCRlsbtMWnPoWBg/EOvHroGHvqutXgfoes3AjRUZnHOm8m67zlNPnUQCtp64+yuqGeHDVAEAxWnOfpr31O8297WLDprzR4qP3oc2atPM8GNWygMDqVeWUzmTFNDRg8tG87QE35AWq2nuGqGigIg51DLVr/Lz9Gc4Tvfv8lmRllM5mXP1QNEAYhItwIgtA3eP38fv4V/L8bzZ2b1MAeoH4JL3ozWddLqzYTy1ZRWb0heGy9j4lqJOCpktHs911h0Q4/y9TAaBmdyryySYwdrf1NyJ9E4ZJkU4ShjH1kJoVlDscjqSSYYgpCWIwB71/aKoYg/AViTPAMhFUbRLgRBKGv2FB0CY8vmRfXfkkNGvBMLFtFydgWKuc/Rcn8pyiZ/xtOe6ZQ4ijgfInFm5PxJ17isbVfqIExcJXLZ7VfnpEhZil9Z9hbrq9GGIcMUgVBEIRBQP+wucnbxmOlE2muqGVU6SIy8NNUMZk/LThNQRbg28+We5dwRo+es1k/bxDC7kON19lYzourgsovTjY3gWuUPHuXCu5vWERSYzkvti+02Li0VmXyWqU57jIK3igjJ9H4r9Wdaoei3asneEKtM90eoVNJP2fzaQpGOdWFnu95te61smeYzlhR7B0CdhAGzuW3x8MxbqQ2jwY1LVuduWynYD/byfXmtnLoY2Hz1O2dnO5Juy4WW5JbKX/jQb4a6D/Q1fgL7ln1YeC/d/0aysY3U37vpyxsyMe4y2A8I402dnk38nLgSiBvMW+WTgUlTc3W5BId1emhV21U+y6l7wT6tNIutvNq33Go9wBqXLW/XgMTy1ZRMgMO/mQ9W95SQ2FDZRuLbhnOjvxRPKUGumVaFoW53bpNgGZvkNpi1pHWbRAIZzeQzIyyMaTQTfPWY5zUBSX1/OW5VjsUlaBdinZdwqFj7OlIteju22xXdHuLYYETahl0ItoARJFnNESyB3Fb/kiMTmVe8Uja1XpW7VumZVGYP8yhPS5wuLyFduOvvoo3Z5pJ2FXrLKo8w9W9CVdxjX5lRW0n1e7JOS2HeISOGwlbneFQH8YzFXiHxtjmAdT6sLdl5H6mpUHdAU6kmO/BIS1b+cPZVbiwYYqpzdXyxw/HNjRhu9eI5Y/u3aLmb8sPF3lG8Zy7JVK51HADp3uMWP4+oF8JN/ig+aWN8HAZ2fhJOl/LuiPTLYbjaeuPMq99cnAAbgxGlAGO02AvZ/NRrt8VHAyrwo0xsLQLEL2NWUAI3oNWXkwDej2e6d7tcUKfc6rHaxdugqj1a6eC+9+4mT02wVURWvRBrqVdbA4F9LowD1xD9A03hKofa1ru2sksWAYFE+e2C5+nXueo7WFPyy0PbV7D3+56hrJAXT9KQ1G6RcDxrl9DWe4I4DLvVuhx9XjNVStZUenwX0e7luB1OsvWtvP01/469EA+bxuPLfiYFwP3Ywjx6jOt9BdbnVkJ3Z+D12IWHm3liJ1Iwg0rztM6/wrN4QS+UKgfFwe0j5Ib4cY0eDJ9pLRBo8MgJNKA3zKQCX6MtY8npvSSmfHIUE6YyuWUp+N1ZWNIsXxQ3eYZJWHv1V35XWEevAbuy+E+ze0eOK+2sTF4NQ+E9LTMA3W3eQYIP9C117VDWnqemAdWDnWckD+JcR3HgnXu0D/t9206F6KM4dDazjp4tDsUsN+T/b6jwGhPtS8vgYPm/xH7man/h+wXxrWTGPGWqax6GdTBrkb4+rTfu71+Qp5T7in+mIQS231pRFV+iPBuMZ479f2VxehjLdG9z1w95+6x9W2n51DF4bnEbfn7gH6kluYh6XxtYECblNhBbWBA4WHUGO3XmVWmwR+aHn1jC5A13WS4vozrRwEt71kG1U3LHVYEdNLWH70GwWYua7fXUFMT4ti+lrnqJW7w7WeLaSB3Zu/7dJrqIm19ARk0m+oJzqzaSJPPQ86CisC5G1M84HufY6Z7t9Vjn1DKa8ogs2nXfjrxkD3HsD5YRsGd2dCyI2x5A3VhTq9+CdWNfsgqoCDPGj8Stvpx7Gc6EdrJoLUq07TiUsqJFmDUzaTpZyLn+QrHjvshcSKTzPdTMl1b7dwV/QD85eVWoYPK3bzrg4Tx0/CaTgM0V5niVp6gGbgx9VbL/+wp5qtuxTt+BLS8Y82DL5g37nP4aLizYINuH2MRKF6hdnczkM24kuDZpuXlWn9/eBtpLKPg4Vkk+fazJRZhZEwKSfhp3mtaFVPKMXfNTvvzHTh2svaO4KUqaaNGABf5xEmwAdg0nGYg5aYYVNN0+4e9h7q1j1/5AWrKT9GhCzU15U6D8TCcbWdP3QVIH6M5CpiWxdR06KiLYcBm4DvDXtNAsevYBa4yFM8NRoRLHFQ+0u1vneEqQ0mdZMwgJjNu2lCuHmo2leMSB+suQHpawNYoQMQ844mb8keJZYBwiROHuiH9OlKVaFcPHTPF6+ZsSzckDsUDMC1VH2CZZ3j1OktMY5zqCMJlnuFx106pc9MY5jvDwVADKp2uOpNgg9Y/T7ZhLZdxn/83uoGeI6NTGZsOHXXhZ8UT8tNI4QKHTYO4rrpmmn1DyZ5rtnVzw1DG5qqCDVq9qf/d9jPfGfaG6hc67duUZ/pQO80+GJaVHKUNnrs2Z/RQEoCOE+HvqfdxWX6DSO+WwHNnrd+uuqBgE22eYZ9ztzj17bPtHDzUzbBpqT3ynPcF/Ui4gdYjpgGJr4Nz5sAwnOvwK2de4U/ngaxFrN4cHOSH4np9Zj02wQbgLdYuLqSwMMSxeC2hxjNhOf+xdXZZN4jWyriMSeM9NgEucO+mQfO5Dj8kzmLpG9sC5/ot9R/Taf6fN5fsRKVv2NDrwqHPhBI0YsHez3TCtpOBn/OnzP+haXkm65xWEEyoeRr3ExT+IGdKtk14jZ0P+eN59RxAG4fDPhsNHG4BssbxkHEqbxoTEqH5iOrj+HNSEsHf8WXlfAROdVj7BmhCz0v76UycxdKGMnIS/TS9FL5OQ3Kqg0485JQeDSkMv/XMQvvzHTgWsva36hU63y7h7kzg9IfUqWEBvkyHDzwpn6sBrrHY2IweSgLd+D81x9BJTGOO6lDA4nhAE5gOt0FK/szAbHJUApJKZ7d18HK2nT2RhK6zyjXTriOFbtqPKYPhT7udhZZY8ownavmjxDoAhK6Oq8AwRiiDhq4Oa3101R2jRh94pY4babHDCnDoIh1AQop1QOw2z7C4aqdkRqfD1ZZLMdWR/4I17dRxI8F3gbPqfcZAwqSRDOMCZ8P2k6GMzhoKbRcVAaiby51AkjaId83oZFIT7fXvihD9LLa61csfLa7aPFjWlPx+5mHRbfkNIrxbXPXHKPMM95y7JVTf7rnnvG/oV8KNOyq4v+E0q02HxZZEp2l5Jlsa/ZqAo8d7bL2TL6JscnI9joPP/k0WoxJ1AU6pD4vNhr4isK6qWRNwjHguhL7eIG39UaX84ex1IqAKGSaSUp3aPhzu+ll8cZGnvpqTNH6uLqhWMC4LWnfHOKDPW8ybDc/TYDoWKP3HLS/vOkwX6UzVV1a8c7JJ8B1mZ1ihKDQ5m611sdpmc6VjrNABnY0bQ67ORqR+CS96d9CKh5xSI984uDL/dgmVd6WD/wiVT4SSfuLH1QufqafsODkUcFAhaN+mrf6gzE73FAn5kxQvblZbjISUYcBQsosVwcxif9B3RCp/n+HrJsTUDMNGDlFPXTPxb6dkZijCuJM9QO8yBE8ikD5GaXMHmx833DCUYaEmIxTi2s9Ga67cr7X87tv8Egd1l9Ip+Ua8oIfHvsJ9+d0wlBFJDgKQQnzzdIc2ATaSqUqbR1JrdqIvyu+WASbcmOwqvJn6fiu6EOPAmVWTLXuyJOWWOQg4zdR6ddWWMDO24ekhtbSwtHDepxucm+oicKgrAoH9aTKpbXG/qtWTGLYorVXmsu+gVY0YBzrbo3EqEF0/iw/u82w60hxUTSuZTgbNnIhFgNCN/RNa6vB6VwaOXS1qRJfUH+IDn6GapqmkdR0/hLpu44agLY2pb1Tsd1i50eyvluZ6aG1pJim3jPtNamvRU8prRn5VmhpcgUnAiVotbe59VNyVDrTxq+LXeV8Jjg9B985T02HYNH3gU5zGMOPDE5Ob56GMfWQMKb4LdPhGMjWmNNxjGLAaanRm1ToDbXaxm+atimCmH722IuOAm/L3R1wJw1ES33Yy2QeZ0th7KLwqW8/zGX6frsbncI9Rex90Odsd135mtl0ylf1wmxoxMtG1eTcnf6aHbdVU6rKL+1bAia78kXC3ehffPN2hrXhe4LBDfjXl0akd90X53TKwhJuS6WQQyyz1K9Teqws4KU7T0q9Qe68xYxvLTG0PqaWFxa5+5pam5bqAE/FabVUgVs60dwApXO8oMBqqZPvZE25grqupWVdedDucALotioM9TNqciSRFO/iPuZ9dA9HkWbmTJp+mmpYzJdtBNdHE0h9SVVVF1Zanma0Eeedkk8Bl3t0Vi/jhxIeU7W7TVNPypjEh8TIf7DV5SAsQSf1K73ctQRu80FRwf5Fuk7V8J00+yCiK5Rl2oDJPF3CCfTgqtbS591Hx+BQ8tPGr+ZVh1NEMYlTXCwwUrDY2ew91B1dooh1oAQn52boNQwsHGzX7jBlOG+DpaiaqelN06Co+vjOcCPdBdDkA7H1clv8acaXqotB+4gIkjmS0OnAMpVKiEEue7tpJEw7UlaPUucqs77TrSAE6GsP3Yf8FB/uDaakWL2BucVTR0W0VgrgbwLrGUNcaF85WJ779TFNR6qb5rTisyrpqcwfOtrNHF3Acr52WpU3WXPPkinN/CxBr+UOg9UeH585MnPN0g2PfjpU+KL9bBpZwo+vcZ0wJrjjkbHZQ3aGC+1X7Et12o7Mj1LR0Ka9V7KeTbArUa/spTbt0W4OwKzDLKHhDHezpg0ezGpcuRATrNpJLZxcYNgwm5wZBdOHMbByft43HbHlqhvdJuQsD95CzuYwc/JZZ/DOramklmwJzXeRtY36uh87GnaEH/0647mdxJKo8NWEuKbdMW90I40igeGKm9sMzltvnWMMa2i8CI5gwR3cKwK2UvxG7WhoYjgXSWVA6lQSbIwGDL7HnxJfhlitsUIMguCppFlZL6h3U0pZR8MYik1MN3f5G7QcuSVt/1LbqkzMlG+jgT473EYaoBRtgxRWygY5PrmXfH0WtJYJaREimZTHHbCiq298Mm5btMLuqDxqiNkY1ow8UzYOB0anMU9VtdEPylPy+neW147L814Lh1CHCIN/GoXbNwP0fzIPDZGbkj4S2M+FnamPN01U76QbRJsPjhPxJTE3q5qo52qfaf/OgP3WJXS1NM+geyVhDAB+dyrz8YVz1WaK549BFOjA7BUhmRnEa+KyCYPtbZ7iamMYc1V4tJgznDWOYZ5lESGZGIP349jNtoGt2RKCtAseiluauzbU+Zb2/oJDlpJKnqT5pdoI25xdRodddKEN3t+V3SVfdGa0PFWdZ3osJ+VnB9OOcpyuM94FSrpjoi/K7pB+5gjbcECvublU3wMreF52N5VTzqN3lsG2/CrsnNEdXxYH047e/RfRE49rXWQix3qs9jtNeKWqdtVZlsif1KEvHvx9wnWvbh8WEWr9gby9rvap79DRT632PccbeMYHyWeN1Npbz4t65+t5IZg949vt0LJMbXPUzd+2kuoYOias8dYy2CrdnC/rKzTcywX+If136LPuU4KCbZ43mqpUcnvI8C0Ydpvze7TQE4lxU9rDxsqkhnxvV/WuAhzZrApLqFtpCxH1ulLb07WfLSzDf5K7c6ItqXw643tbbxeyKW0W91ta/I9VvCPJf2KA5EHDCf4RKBxW1DZVtLBqZzLOLPESjRBlgdHCfkpNndXefqJ6X7HtaBDDcAgdcAqt7KBguUO0egKzuUTXUfW4iuwZVy3aBw+UXGe3gvtVQzbFg2X/EbZ5usN9bEHMduS9/RMxumQM41LvuItZx7wkLatns+1q4zdNxHxkdtRyR20lJr+0UNdtghr5HSyAtxdX51UPHOEg2c6ZdtfZRSzytbXB8DlxgqQ+tHs5OmsScrAuK613n/qHWhWtsbt3V51BtS6d+5uz2WGsPa52pbdRRd4Cz46wur+Pd5vY46j2aCdavmlf0qHVnfw7sZVPLH827JXJ+uMnT9XPuHsc2DXdPIVxB46b8fUD/EG4EQYgOpz1Z+gmacOOwoadCXDatHCxEFPaEvyjCDCR6jL7IUxBcYN/HR+h1Btj7YWCppQmCACZbosZ+JtiAl6lZ0NW4O6xgA/BUVTJ+rrCoMooZ7UHJF2xffgmPL5kdItgIgiAE0VUjrXupCL1NONXB/ogIN4Iw0DC8g1X1ldpkKG6l/I18sn2H+amiquZIg4evVA+HWzr4/doYNq4cJGyoPMusxOHsiFUdTRAEYdChu//W1bFUVS6hJxnK2CVWG71x04ZGttHrR4hamvAXgt0ex5EYbSx6A7PtSMy2RD2CZn+TDeAL2uq4Zdnadp4elxC7rclAxuvn9yu7eP/5VBZHU2nC4KYvVED6Ik9BEPonqg1eOHucfogIN4IgCIIgCIIgDApELU0QBEEQBEEQhEGBCDeCIAiCIAiCIAwKRLgRBEEQBEEQBGFQIMKNIAiCIAiCIAiDAhFuBEEQBEEQBEEYFIhwIwiCIAiCIAjCoEBcQQv9g7zFvFk61bRp1GXerXiGsnpLLCFmutld1wHV6dy5SQ3rh5TUs7ooO/i/ZQfrlpeaY/QOJfWsLkqhqWIytdIXnfE8Q7V3hunZvcKBhm/ytN8Sq5fR9rVKaiznxVXhd09a8bVavnmT6cQnVeT97uemExp3TPglP/i74cETXQf5l/o1/NYcqd/yHV6aX6TtRaXTfLCAh/vjhl4OPLT5eRaMin4Prb7gjgm/5AepxwdQ3xjgeJ6h2jue433wzvnWgvu452b4qOF1vn9UDe1DbvoK/3HfBIb7P+DHP/89b6vhK87TOh925I/iKTVsAJC6ZCZT04P/Oxz25hrUKzdL7trK9sVPcJsaIPQvDMGmpQ6vd6V+iGATP75g+44Osn3J7BgIgg1AZR7rvJms85bT5FMDraStP8rqhnpy1AChV2k+WEBedQF51b0/yLgWNv3OKPdzHOhSQ1Va+GW1Hn9ADV5/zsNGuRsOEvE2hdhI28gP/m44zScGUt8Y4PjXUPfJcGZ6N7JCDROc2ZTEft8VFu3ws0wNGwC0bztATfkBarae4aoaqDOohZsBy+0PMHbnT5jsdDz392rsAY93TjYJXObdXf19Tm5gsqHyLLMSh7NjkYfwc9iCIAwovl1CZfUG67H1Piaq8YSex/MM1TOy6PrDc9e8Ipb/gt6WL9yhBvUtc++jonoDldWrWDpXDYwvE8tW2ft2iPrY9LvnONCVxTfznsE5Rs/w0cUuoItLHWqItqpT/YR6zOFbakQA0vmREvc/vJ5AqHNad7HKvOJs5hMfnwL4fPZVGwC+xOJFKTQnXuLpym41MGoS8idR+Eiqvno/lLGPzGTGNDVWZBLyJ1FYNtPhmMTY0Wrs8Ihw0x95+1VOLnycowsf52STH2ilVf9/9Mn/p8YeJFzkj7JSE3+8fgpugebqgbn8LAhCGP6tkpL5T5mO33DaM4USEXB6nRXjZ5DQdZAXP9ijBrlHF1Ynvf8bTqthfcqtLN26gcql8NbBy2pgj/B++Xpr3/7JEfyZXw8h4Ozh6XcP0pUwg8cmzFMD+w7/B/z4hdeZ/8LrzH9hPx+Ryj2KgHO79y6qn5jFLR/v1+Npx2bm8KPJodJ6nTc/TmD6fWEEnIgM5c7q4XBLB7vjseTV2a2vCA/Bk6gGRkM3zVv1lZnAcYyTZ9V44ek/Njfjn2H77Os5Uv0wZ7+6lcJUI6CNmk1r2GaLa1K4a69l8a//U/ud8gQ/nz+ZYcFQK5eP8rPtL/COrrZWOCL4H4LXd+wrpuw4QC5PLn6IKZdrWfxuqiXtq8df5jv7GgG4bfZLPHLzKX62vZ3CFQVkOMSJhSFPrmNszkVaF/4Yi3bO7Q8w9tExdG7cx988Wkgyfs5tXM1n3/gJGRmA/z1OfudVPtOjJz6nnzdorXEQlMZzw89XcGNwwiDAZ02bOPnccf3f3/O3OwtJDoS22ssXBd71ayjLvcgu70ZeVgMt4bv52zce5KvGg+Oz62A/tPl5FmQF/3c1/oJ7Vn2o/clbzJul2XxQ8Q4jS/PJ1u16/rhAv0ZJT02Lljq8y825ednUkM+Njb/gnvY7aSgK9snmqpWsqNRjXUP5LXmWPEpDUbr1nnS069psdbihso1FI5N51nHVxmSX0L7QYuPSWpXJa3r5NZZR8EYZOYGXlt/RDiVt/VGW5po6kGork7eNx0pn0amkn7P5NAWj9rPl3iVYJz31fM+rNjda2c1d2koztd48moy/er5JgXDn8tvj4Rg3Z/NpCkzt1OnCtiMUalq2OnPZTlrdd1Dr3cn15rby2es1bJ66vZPTPWnXKXWr29ycc7Th0Nov+3g5jSllFGTpdRW4D6VubfVvr3vc9DMnmxtT2vb+DTCPZ/OeZOblcDY35/hl9aOE1+4s5odVd5PpP8S/Ln2WfWpwlBT/qIq7M65w6KcP8OxeNdTOxLJVlMy4yK/mV1KnBhKpvSITzfvMeGcFsL1DCbxHg73abm8ZsLl5Cb5rss00v2c1bqXcXCb1G2CkRR3eXTdY7Dztabkt/7XXKeirIo8n89b8Suq4g5XVXyfz9G8oeaLvFdzyX9jA3PNbKC3/UO9fcPAn69nylhqzZ8l/YQN3jzxCZfHrvK8GBuznWlw8oz3Ptxbcxz2JVpuX27138b3JCUEbHd02hqM1/FNDaF1ep7SMaz+9JnufL9i+4yyzCDVGcEfqkpmMvXCMPXXdMDqVecUjad8avUCSkD+JOdOg2e21o1OZV5xGV/+3uRnGlPlbKaSWxZuKWbzpZY5cTqfQZDdz2+yXdCGoWI9TS2tqAdvv+kctQscLfGeTFlbTrgsz+v/Fm4pZbBZkoiG1gO3zx/AHI999bQwb/xDl401xRkzmkRVz6AwXJ84kPTCbP2/cxDm/h6QH1pFBDUdrWsEzhsTbtThDnlxH4gf6ys/Cxzm68T0+yyhUVNx0wYb3lFUjuFTzeFCwuf0Bxu4sZGjTpkB6ra0ZZOz8HlEJ6yWP0tDwPA0Nz1OWOwJIZ4H+v6HheRo2e5UL0lnQ8CATjv9Ct8mpozlxKmWBeF42NegfQMNup+Iw5D5oS2vCw7dxoeIXvOsbwYSH12gfuqo2SMzGm6entn4NU48Y9j9aWl1Z+ba0ABJyH6ShCHbpccsbL5NdtIZyPS2NSOV3kWflbt71QcL4aVhL4WVqFtByQhEOu5l+C/hPDAv70krKLWN1EdR6M1nnzWRLo5+MoqMUBMpfwf0NuoARiAM5peY4xoATmiq0OOu8mWzpKOD+kmCc+FHKa6byasJMMN915sE3Fdz/MFSbwmtbPLbyU1LPal3wCqRT1WyKgF4XuiBmxKnYD7llrN5cocSNTNr6o4w7YsqvYj+dWYsc04rcTgDZFDRowoSW5g5aE2ex1JRexDwrd9Lkg6Txc0kLJgxUMC4LaHnPVLcuGf8ouR3lbGn0kzT+UR4rglrvDlrxkD3H0Pp2104x9TNDsPFp7WYXbOLI0klkAnjGcvscNTBaipmUATCcsbmz1cA+xN37rKHoOt6tMN5pdTTb3qG6YGOxt3yHkQ8vVt5xQOJUykqz+UBPT3vPPspDpigPbV4IL5neoVVtJOQ+yJvrbzXFArLyabClZX1nuyu/xh03jyeBFo7EKtgAvPU6paEE0j6m7omnKC23Tqj1RzadaQGymGJ9cfUzgmps3/rfExhOO7vDCDY9y5fYc+LLkNjFPHu3jkjqEk1tbGo6DJumq5QVpzGMoWQXz6SwLIvAOkUv08+EG22lI7AKQyPvfHwVRiTpM7T/SOH4YVw9/irPBXQc/5OyfW2QOocnU4xzPUEbNZseDuZ7/DitQMrIXEus1n2R48QPD0Mu7uNTXZQf4rlIa2A1xsPfZGq/PntuNX/cGrgI3n6Vc61AxoSgQHJ7DkkeuLQvuNrz2XP7uAQkTwgKQYnfmM4Q/3u0BVZxwPdkDZfI4MYno5DiKjcGPkDljZeBtoBw4PWudJwda65aaZqBa+BwCzDqBryAd/1tZNPGLvPMYf12ftp4GbJuM320RpBw/p3ArGBC4kV2BfIawcgx2q+GVc9YZ/Hqt1PbAmSNs3xMQZ+xNK2YNOxtpsuUlkG48uMqzw9pOH7ZIoQBUDJOW4VSbZZWXCGbL/P+vi9Zz6v49rPFJAyc2fs+nXgYpZc/bX0BGTRTa5oZP7NqI00+DzkLgoPmG1M84HufY6YZ1zOrJvfsQNIVpbymrFw07dpPp2VgvYyCO7OhZUfY8gbqwpxe/RKqG/2QVaAIGpGx1U/9EhpbgKzpdgcJEdrJoLUq07TiUsqJFmDUzQFBJXKer3DsuB8SJzLJ0s+mk4Gfpl3Re61LSuyg0ShToofOquB9JKUYS0hu2imWflbB/YZgY1sZ7AG2HNNUivwnedvFSkt4tnKsFeAKJxtdrAHNvY9/mjEC/8Hf9vggOfz7zMvC3BF0Ne40rcA0sKKqzfo+zruBG4HmI+Z3VwMr1BUgsK3oaO/ZdKaahNqXlyuOaEJOCClprXqHZkYwYY4hBLksPwDz8KYOh0+O9PlqwaDm2yXcnQmn9zqv2gBw5gjNwI2J/Ug1zeCmr7B8cgL423j7EwAPaYmA/xIfqXEj4mFVoeYN7c2YV200XtmXgJ/PSTG7UnSJZth/jGaf5rGspvwANXUXgAscLj9ATXkL7epFvUS/E246LlhVuN7Z9zCLDbW08ePJ4Cp/OKmoeZ3v5CrDSBplPR1XLnfSajnxn5RtKlZUztr4IDjm7xUufWBSLfNf4M/mwDD8+bwyU5A5kiHWMwE+O28MB/6exAz47A9NAQFI4wx/9sOQUT05XXKZC6esZ15evhLvvdtp4Fa840eA7yJKFEdBw/IhdbgmFKc6Qugan//U+iGu3849XlXFIVz5Q6PmadxP8CMMD01JB18zDYrqzrKb/hv4az4OlwHA+Y+tA776JbwYmN1exqTxHofZ+lf403nroPlchx8SZ7H0jW3KjH8/pP5jOs3/8+aSnQitR8IN3PW68HVwTgkJJWjEwrmOELN4YdvJwM95pZ81Lc9kXYRBvZqncT9moSJnSrZNqHCNpf/YyxgStZ2i7mdzNfXF3hJsANjKPxcVURQHlTSArd8voqgojEpawMh7A5WPT8Fz+je9MMse4X2mT7h8sFcpx6mL1vdx/aecA7KLnmdTuJU3cHzHReZD/nhePeeU1lku+CAhRbdadlt+ALK4LgG6LreYTwrxwOww4650/Ae38Py/qZHMtHCxCxJGmHVu+xDPBL5nOADQ1c/mB1TLkklWTAA0+5ug0wCLzY05rScKme5p500nN8/R0vBlOoCUm75QQ1xitbFJSBkGvm5CfMVcYKz6mI/oV4D6nXATjttGXh9QXdu+wnSEs7ERdBsZq9e1sTnKU7X1N5zzQ/LsBwJCzpAnZ5OMn87fGSppNzIUGJKzQvHi5myn0+uoQoaJG1MVtYSIaGpuATW5gPpcT+IiT301JzgTqamkNe8OLyTFThajEoGsRaxuOG05LDYb+uz5uqpmbeBpxHNQr+oLNHfR5vKHs9eJgCpkmEhKjdaxpqbmZi6bxZakR3CRp76aE1RN01TSWnf3rIDgpp2i6WdJubO068O02YDnrdcpNRle/4qv94o3q3B4U68DRvDVUuv7rMGylxnaaoj3F7zr0wQcLZ6q0hsFeYt5U3mHWmwYXeK+/G6Zy9rtNdTUWI+fRvu66AmW/dRWrprta+nD7hPE4jBjCyfHLqWyuoR8NV5/JeAEYD8fAcMnTzU5E7jEJUUCeLvh15rDgNc/4Io1yOZQ4MdHPdyjCkB9Rjf+T9VzseLkUCD6FaABJdy8c+FPwFWTvY310BwACFZ0439/0JbGbE8TJI2/8QCe6QE31GNz4NzG1QG1N94+R7fuXCBgv2M+bA4K+g/n2qOZydT1wH0m+52A+lxP4T7Pl4+Y7INKxpFNG4dDquRcKy2c9+kG2yZbiMChzoYH9qfJ1FXqnO1HehPD+LzVbEvj3aGsxMaHzvZw1k0qulME3Q4kYD/SqD6b8cR9nk1HmoOqaSXTyaCZEz3Wz6JsJ5f9rLOxXBOEQoQPRuqe+A2nGcHYWdFO6MSPhvaLuuqXSdXYdFhXtT+k7F49rOIwXYzgq6UxCDiO+6WtZFcMCyrRld8Nb7F2cSGFhdbju9G8LnqKV75rK1fh4rX0sq8AF3zIli1H8JPOpG+rYf2dNr7f0A6kcmfAxbOfMz7Ak8wtSmw3vN2wl/f8cMuMr6CbV/cuo1OZVzaTwrIxpJhWW+ZMGwqJacwpm8m8/KHqVb3GgBJuolU/a+002+u447axYwbXKlDxBJKx2tI4oa3SmFxOL3ycowtNgg3EpH5W/KMqqqqqeLW0J41hdVsUB3sYbQ+dKAf/JePIpidXQxyIJs/K3ZozhDm3aippNkcCGq988tfAf3NzDIaCQezqZ25pWq4PPCNeqxuqx8iZ9g4ghesdB0OGKtl+9oTrA7r6k3XlRbfDCaDbojjYw6TNmUhStIP/kulk0POrIRaiybNyJ00+TTUtZ0q2g2piPHHZTg5E7GeVeZrwlrWIx9b3xlR5MT+sqqJqy9OEfest/SFVLuJp79BXefqanRO4ZTZPb9He2z9cqoa5xFF9ywX127lHF3Civfaa9kvLm8aERJPKclTl7yNVqDlP82pVFVVVP6RYDetjeue770QEFcG+rLOjh3nPb129+fc/aALPpGtZfQm5l41LvJ+TAnR8EsE2V+VsO3tsNjaa/c3VQ8eoKT+geU/rIwaWcNPxAnvaIWP2S66cB2grPenMm+1s0K8JP2O4TU/rttkv8cj4QSXawOkLfKY6BXjOrpb22acXgesYEnYK4Dif7muFjELGunIeYHj6geFjbw/7Ab9WNIPQdBaYPdnkLea7uSPoatztOPgPyamLdAHZU4JpPbTZQUUsnkSVpybMJeQ+yIKsMB/zTcNp5nMmzo5Vl1ajadd+OhWPW3aWUfBGvTLo14UWs0qQLkRkTDHSiuTS2QWnOujE6twgiC6cmY3j87bxmC1PzfA+KXdh4B5yNpeRg99i83FmVS2tZFNgrou8bczP9dDZuDO6wf+pDqUuNFfLNhWxeBJVnpowl5RbRkFWbI4E3OO2nVz2M4UzqyZT26J5nAvrVS0euPSWNvsG/cPjmcY9IYWIaL2l3crSrV8nkzbeitXuZs7tjNW7Q+bEGIeAuvqs6oHMRsmjNk9mhpCi2vREQlttMdsj3kr5G27U0m6l/OGpJPgOs9MQrN2WH4A9NLRfgZumEI/tQlxzSzLDAcjE2+tCRDhmk3ad9mv4jHviKETcwcrHp+DxH6E2lN1N2hSygXO+EHsN9Wmd+Vl/UFm9ObqXNz+GW7zRq5fd7p3DdA989Ic2NSgqls3uwsOX6VAdg0aDYmPT1dF3Qo3BwBJugG2/LuZnx7Hb3ZjcRQc4voafHb/KsPEPOcZ7Z9/D1LQHbXgeufkUP9tU66wG0Zvc/oBJNcwDZJBh2LdY3De74O1XOVmjCSSGjcyN5zfZ1dK2/pjWVg83Pmq1zbHlufXHHN34HtjsbtZxg00wMjz9wJWTb8fFuDY0DawwXHWa9KPPWTz6uKR+O/dUtWnuQvW0Cjp+4agiFjeizFNzLOBkGGtmKO99BJ5xV7mm+er6Jbzo3UGrg91NcKD4CrX3vsc4xV4iqbFc2X+klNcM18N6HKrsalE5m4009P1aTHnbBqf1S3jRUD0K5B0cADctL9c8u5XqYaUpNDqoO2nxsinQ08jtKGfdS6pfnlJeU+tCdx+t7gkTEYdyG+6Se4wo89QcCxC7I4EocNdObvuZHS19yCg63bMrOC69pe2raHCxUWN4b2n2XdyXMvbkFkquxaXw3rc5qXeH0++b3WxGx8vLV1LeiN1u5Q2Tm+fKjfyUhZZwbQ8dxeuZGyo3Ut6oTfpoaT3IyN0h1NISp1IWyPNBvnq+zubcxVX5dX778XG6rtkF8R2sDLTj1zUBOfPrgbZdqapibXmTQ86Pbdwx97OSGSOAEcx4XC+rbcPYfTz7duSeHYn8F8z9WqsTfv0UJSH2uAFYkZYFXQfZFWqWoxfrzBGn1ZtdrzO/oZ1bvEFHAtX3aS6ij5k9oVkcCtzH9yb7efOFa9njBuAL5o37HD5KZnGIOdJIJKSYFwSudQNPQjgUmMRY3dcHJDPDOF+cxjAgJd/ueKD/bOIp9CnaJp/aRqAWVbTi7zG5MEPZxFPoc3T9chw29LTg9fP7lZfgd6P5ytool50FQd8fBocNPQPEYwPDfkG8NvF0T7QbdMaFQdNesRHYEDSCp8po6YsNJGeXvsr/mTGc0/9VxD9vUUP7kvhuZOsKl/26/9ZZH7DiPK3z/5v9z6fGLNz0Vwbcyo3QE4xnyHWA/xQ+VXlTV2sT+heGLVFtOMEGoMFD7Ufg+VoH29XpRkGIgGFLFNijRogfS3/I3Rlw5eArvSfYCD3GpuMH6SKLb37tO2pQzzDnaZbNGA6tv+p3g/TiH91NJlc49O+9JNgwj2e/OoOEcKs29O8663262T3/yjWt2vRnRLgRgON8dhHwjCHRolo2nhsemM4Qsztooe8peZSy3BE0VwU3Dg3HUyWj2e/7nFkrz7NBDRSEUJTU697LghtuCvFAdzjwjUxO/1cRD1T0zvBP6GH8a5h/sAVuKqJ6Qk9uIqk7fPjuNDj4rxR9P3bVwbijO8m4O+M0vwq3N1OcWfG1J5mZ0MIv69fwWzUQ+ned9QlfsH1HB9m+ZJ4t6TuPZj2JqKUJATTVNOWk/z1Ofie8pzWhd/CuXxNwMNBcFa070m5213VAdTp39pbOxF8kLh0k9OqmktFhuGQGaK1SNwl1QFcHCe7/cYUDDd/k6b7UbY8CTZ3IdOKTcGppmjkyAF0H+ZeQg6n+xnd4aX4RZt9/zRHUdwYrPaWWZnDHhF/yg9TjA6hvDHA8z1DtHc/xAfTO6XNWnKd1PuzIH8VTatggQYQbQRAEQRAEQRAGBaKWJgiCIAiCIAjCoECEG0EQBEEQBEEQBgUi3AiCIAiCIAiCMCgQ4UYQBEEQBEEQhEGBCDeCIAiCIAiCIAwKRLgRBEEQBEEQBGFQIMKNIAiCIAiCIAiDAhFuBEEQBEEQBEEYFIhwIwiCIAiCIAjCoOD/A1EVkyFMIqj8AAAAAElFTkSuQmCC;" vertex="1" parent="1">
          <mxGeometry x="-200" y="600" width="823" height="69" as="geometry" />
        </mxCell>
        <mxCell id="DmlKeSAURHe2a4eYINKB-49" style="edgeStyle=orthogonalEdgeStyle;rounded=0;orthogonalLoop=1;jettySize=auto;html=1;" edge="1" parent="1" source="DmlKeSAURHe2a4eYINKB-43" target="DmlKeSAURHe2a4eYINKB-48">
          <mxGeometry relative="1" as="geometry" />
        </mxCell>
        <mxCell id="DmlKeSAURHe2a4eYINKB-43" value="Al eliminar ALPHA, rompemos la estructurada esperada por Image, asi que debemos reestructurar con .reshape" style="rounded=0;whiteSpace=wrap;html=1;" vertex="1" parent="1">
          <mxGeometry x="50" y="700" width="350" height="60" as="geometry" />
        </mxCell>
        <mxCell id="DmlKeSAURHe2a4eYINKB-46" value="" style="endArrow=classic;html=1;rounded=0;exitX=0.476;exitY=0.942;exitDx=0;exitDy=0;exitPerimeter=0;entryX=0.417;entryY=-0.05;entryDx=0;entryDy=0;entryPerimeter=0;" edge="1" parent="1" source="DmlKeSAURHe2a4eYINKB-42" target="DmlKeSAURHe2a4eYINKB-43">
          <mxGeometry width="50" height="50" relative="1" as="geometry">
            <mxPoint x="360" y="740" as="sourcePoint" />
            <mxPoint x="410" y="690" as="targetPoint" />
          </mxGeometry>
        </mxCell>
        <mxCell id="DmlKeSAURHe2a4eYINKB-50" style="edgeStyle=orthogonalEdgeStyle;rounded=0;orthogonalLoop=1;jettySize=auto;html=1;entryX=0.5;entryY=0;entryDx=0;entryDy=0;" edge="1" parent="1" source="DmlKeSAURHe2a4eYINKB-48">
          <mxGeometry relative="1" as="geometry">
            <mxPoint x="235" y="850" as="targetPoint" />
          </mxGeometry>
        </mxCell>
        <mxCell id="DmlKeSAURHe2a4eYINKB-48" value="Asi que usamos -1, -1, 3" style="text;html=1;align=center;verticalAlign=middle;whiteSpace=wrap;rounded=0;" vertex="1" parent="1">
          <mxGeometry x="170" y="790" width="110" height="30" as="geometry" />
        </mxCell>
        <mxCell id="DmlKeSAURHe2a4eYINKB-52" value="El error ocurre porque al usar dos &lt;code&gt;-1&lt;/code&gt; en &lt;code&gt;reshape&lt;/code&gt;, estás diciendo que tanto la &lt;strong&gt;altura&lt;/strong&gt; como el &lt;strong&gt;ancho&lt;/strong&gt; son desconocidos, y solo estás fijando los canales (por ejemplo, 3 para RGB).  &lt;br/&gt;Para que NumPy pueda reorganizar el array, necesitas fijar &lt;strong&gt;al menos una dimensión&lt;/strong&gt; (ya sea el alto o el ancho).  &lt;br/&gt;Así, una vez conocida esa dimensión y los canales por píxel, NumPy puede calcular automáticamente la otra." style="rounded=0;whiteSpace=wrap;html=1;" vertex="1" parent="1">
          <mxGeometry x="-40" y="860" width="600" height="170" as="geometry" />
        </mxCell>
      </root>
    </mxGraphModel>
  </diagram>
</mxfile>
